<svg id="Capa_1" enable-background="new 0 0 512 512" height="512" viewBox="0 0 512 512" width="512" xmlns="http://www.w3.org/2000/svg" xmlns:xlink="http://www.w3.org/1999/xlink"><linearGradient id="SVGID_1_" gradientUnits="userSpaceOnUse" x1="74.981" x2="437.02" y1="437.019" y2="74.98"><stop offset="0" stop-color="#0056e0"/><stop offset="1" stop-color="#fc54ff"/></linearGradient><radialGradient id="SVGID_2_" cx="256.001" cy="256" gradientUnits="userSpaceOnUse" r="258.6"><stop offset=".0053" stop-color="#8d00db" stop-opacity=".5"/><stop offset="1" stop-color="#fc54ff" stop-opacity="0"/></radialGradient><linearGradient id="lg1"><stop offset="0" stop-color="#fda0ff"/><stop offset=".3772" stop-color="#fec1ff"/><stop offset="1" stop-color="#fff"/></linearGradient><linearGradient id="SVGID_3_" gradientUnits="userSpaceOnUse" x1="219.993" x2="345.237" xlink:href="#lg1" y1="388.657" y2="263.414"/><linearGradient id="SVGID_4_" gradientUnits="userSpaceOnUse" x1="145.338" x2="325.601" xlink:href="#lg1" y1="411.021" y2="230.758"/><linearGradient id="SVGID_5_" gradientUnits="userSpaceOnUse" x1="361.328" x2="485.876" xlink:href="#lg1" y1="250.678" y2="126.13"/><linearGradient id="SVGID_6_" gradientUnits="userSpaceOnUse" x1="289.93" x2="462.108" xlink:href="#lg1" y1="269.516" y2="97.338"/><linearGradient id="SVGID_7_" gradientUnits="userSpaceOnUse" x1="82.26" x2="201.436" xlink:href="#lg1" y1="400.582" y2="281.405"/><linearGradient id="SVGID_8_" gradientUnits="userSpaceOnUse" x1="7.916" x2="183.713" xlink:href="#lg1" y1="422.735" y2="246.937"/><linearGradient id="lg2"><stop offset="0" stop-color="#fc54ff"/><stop offset=".2201" stop-color="#fd75ff"/><stop offset=".7016" stop-color="#fec8ff"/><stop offset="1" stop-color="#fff"/></linearGradient><linearGradient id="SVGID_9_" gradientUnits="userSpaceOnUse" x1="156.63" x2="383.016" xlink:href="#lg2" y1="335.531" y2="109.145"/><linearGradient id="SVGID_10_" gradientUnits="userSpaceOnUse" x1="97.007" x2="346.951" xlink:href="#lg2" y1="343.169" y2="93.226"/><linearGradient id="SVGID_11_" gradientUnits="userSpaceOnUse" x1="297.075" x2="527.614" xlink:href="#lg2" y1="305.234" y2="74.694"/><linearGradient id="SVGID_12_" gradientUnits="userSpaceOnUse" x1="238.406" x2="486.129" xlink:href="#lg2" y1="311.69" y2="63.967"/><g><circle cx="256" cy="256" fill="url(#SVGID_1_)" r="256"/><circle cx="256" cy="256" fill="url(#SVGID_2_)" r="256"/><path d="m228.396 308.241c.078 28.681.219 57.363.425 86.044.032 4.242 3.431 7.708 7.591 7.728 13.059.066 26.118.066 39.177 0 4.159-.02 7.559-3.487 7.591-7.728.073-10.244.139-20.486.196-30.73-18.148-18.345-36.527-36.831-54.98-55.314z" fill="url(#SVGID_3_)"/><path d="m275.978 232.946c-13.318-.01-26.637-.01-39.955 0-4.243.005-7.688 3.446-7.691 7.69-.018 22.535.004 45.07.065 67.605.133 30.554 24.784 55.47 54.979 55.314.229-40.973.327-81.946.294-122.919-.005-4.245-3.449-7.685-7.692-7.69z" fill="url(#SVGID_4_)"/><path d="m368.986 170.85c.526 28.383.789 56.767.789 85.15 0 4.2 3.435 7.599 7.681 7.591 13.324-.021 26.648-.046 39.973-.074 4.245-.011 7.696-3.377 7.696-7.517 0-10-.05-20-.15-30-18.613-18.164-37.329-36.595-55.989-55.15z" fill="url(#SVGID_5_)"/><path d="m413.5 98.15c-13-.592-26-1.111-39-1.557-4.141-.143-7.379 3.152-7.242 7.354.738 22.301 1.314 44.603 1.728 66.903.536 30.317 25.401 54.95 55.99 55.15-.399-40-1.596-80-3.592-120-.209-4.14-3.744-7.658-7.884-7.85z" fill="url(#SVGID_6_)"/><path d="m87.599 322c.615 28 1.62 56 3.017 84 .208 4.14 3.743 7.66 7.883 7.85 13 .592 26 1.111 39 1.557 4.14.143 7.379-3.155 7.242-7.354-.336-10.137-.638-20.273-.906-30.411-18.671-18.686-37.47-37.282-56.236-55.642z" fill="url(#SVGID_7_)"/><path d="m134.544 248.409c-13.324.021-26.649.046-39.973.074-4.245.011-7.696 3.374-7.696 7.517 0 22 .241 44 .724 66 .708 29.75 26.159 54.836 56.237 55.642-1.074-40.547-1.611-81.095-1.611-121.642 0-4.201-3.435-7.6-7.681-7.591z" fill="url(#SVGID_8_)"/><path d="m157.603 262.099c.033 28.463.293 56.926.78 85.389.073 4.209 3.547 7.682 7.752 7.748 13.2.206 26.401.366 39.601.482 4.205.037 7.587-3.372 7.556-7.614-.076-10.234-.14-20.468-.19-30.702-18.476-18.503-37.028-36.985-55.499-55.303z" fill="url(#SVGID_9_)"/><path d="m205.49 186.964c-13.265.08-26.531.191-39.796.334-4.226.048-7.697 3.5-7.746 7.71-.255 22.364-.37 44.727-.345 67.091.054 30.283 25.057 55.126 55.499 55.303-.203-40.935-.203-81.87 0-122.805.021-4.239-3.386-7.659-7.612-7.633z" fill="url(#SVGID_10_)"/><path d="m299.026 231.439c.057 28.655.014 57.309-.128 85.964-.02 4.24 3.387 7.659 7.613 7.633 13.265-.08 26.531-.191 39.796-.334 4.226-.048 7.697-3.5 7.746-7.71.116-10.165.203-20.331.261-30.496-18.33-18.203-36.812-36.603-55.288-55.057z" fill="url(#SVGID_11_)"/><path d="m345.865 156.764c-13.2-.206-26.401-.366-39.601-.482-4.205-.038-7.586 3.376-7.556 7.614.168 22.514.274 45.029.318 67.543.069 30.566 24.738 55.252 55.287 55.057.232-40.661 0-81.323-.697-121.984-.073-4.209-3.547-7.682-7.751-7.748z" fill="url(#SVGID_12_)"/></g></svg>